<!-- icon666.com - MILLIONS vector ICONS FREE --><svg clip-rule="evenodd" fill-rule="evenodd" image-rendering="optimizeQuality" shape-rendering="geometricPrecision" text-rendering="geometricPrecision" viewBox="0 0 1707 1707" xmlns="http://www.w3.org/2000/svg"><g id="Layer_x0020_1"><g id="_718907672"><g><g><path d="m819 912c-183 0-332-150-332-333s149-332 332-332c14 0 25 11 25 25v284h285c13 0 25 11 25 25-2 183-150 331-335 331zm-23-615c-146 12-261 134-261 284 0 157 128 284 284 284 149 0 271-115 283-259h-283c-14 0-25-11-25-25v-284z" fill-rule="nonzero" fill="#000000" style="fill: rgb(61, 139, 183);"></path></g><g><path d="m1194 538h-308c-14 0-25-11-25-25v-308c0-14 11-25 25-25 183 0 333 150 333 333 0 14-11 25-25 25zm-285-49h260c-11-137-122-247-260-259z" fill-rule="nonzero" fill="#000000" style="fill: rgb(61, 139, 183);"></path></g><g><path d="m553 758c-8 0-17-4-21-12-7-11-3-27 9-33l266-154c11-7 26-3 33 8s3 26-8 33l-266 156c-5 1-9 2-13 2z" fill-rule="nonzero" fill="#000000" style="fill: rgb(61, 139, 183);"></path></g></g><g><path d="m1585 1162h-1465c-66 0-120-54-120-121v-812c0-67 54-121 120-121h1464c66 0 120 54 120 121v811c2 68-53 122-119 122zm-1465-1006c-40 0-72 32-72 73v811c0 39 34 72 72 72h1464c40 0 72-32 72-72v-811c0-41-32-73-72-73z" fill-rule="nonzero" fill="#000000" style="fill: rgb(61, 139, 183);"></path></g><g><path d="m933 1437c-14 0-25-12-25-25v-250h-109v250c0 13-12 25-25 25-14 0-25-12-25-25v-275c0-14 11-25 25-25h158c14 0 25 11 25 25v275c0 13-11 25-24 25z" fill-rule="nonzero" fill="#000000" style="fill: rgb(61, 139, 183);"></path></g><g><path d="m853 1599c-142 0-257-83-257-187 0-80 69-150 172-177 13-2 26 5 29 18s-4 27-18 30c-80 20-136 72-136 129 0 74 96 138 208 138 115 0 208-62 208-138 0-57-54-109-134-129-13-3-21-17-18-30 3-12 16-20 29-18 102 27 170 97 170 177 3 104-112 187-253 187z" fill-rule="nonzero" fill="#000000" style="fill: rgb(61, 139, 183);"></path></g><g><path d="m1682 986h-1657c-14 0-25-11-25-25s11-25 25-25h1657c14 0 25 11 25 25s-13 25-25 25z" fill-rule="nonzero" fill="#000000" style="fill: rgb(61, 139, 183);"></path></g><g><path d="m713 1073h-64c-14 0-25-11-25-25s11-25 25-25h64c13 0 25 11 25 25s-13 25-25 25z" fill-rule="nonzero" fill="#000000" style="fill: rgb(61, 139, 183);"></path></g><g><path d="m885 1073h-64c-14 0-25-11-25-25s11-25 25-25h64c13 0 24 11 24 25s-11 25-24 25z" fill-rule="nonzero" fill="#000000" style="fill: rgb(61, 139, 183);"></path></g><g><path d="m1058 1073h-64c-14 0-25-11-25-25s11-25 25-25h64c14 0 25 11 25 25s-11 25-25 25z" fill-rule="nonzero" fill="#000000" style="fill: rgb(61, 139, 183);"></path></g><g><g><path d="m195 855c-14 0-25-11-25-25v-545c0-13 11-25 25-25s25 12 25 25v545c0 14-11 25-25 25z" fill-rule="nonzero" fill="#000000" style="fill: rgb(61, 139, 183);"></path></g><g><path d="m1510 855c-14 0-25-11-25-25v-545c0-13 11-25 25-25s25 12 25 25v545c0 14-11 25-25 25z" fill-rule="nonzero" fill="#000000" style="fill: rgb(61, 139, 183);"></path></g></g></g></g></svg>