<!-- icon666.com - MILLIONS vector ICONS FREE --><svg id="Layer_1" viewBox="0 0 512 512" xmlns="http://www.w3.org/2000/svg" xmlns:xlink="http://www.w3.org/1999/xlink" data-name="Layer 1"><linearGradient id="GradientFill_1" gradientUnits="userSpaceOnUse" x1="255.999" x2="256" y1="500.735" y2="11.264"><stop offset="0" stop-color="#6c54a3"></stop><stop offset="1" stop-color="#00b1d2"></stop></linearGradient><path d="m480 75.994h-448v-32.722h448zm-32.788 277.779h-382.424v-245.773h382.424zm-175.012 98.737a16.2 16.2 0 1 1 -16.2-16.147 16.233 16.233 0 0 1 16.2 16.147zm223.8-441.245h-480a15.985 15.985 0 0 0 -16 16v64.735a15.986 15.986 0 0 0 16 16h16.79v261.776a15.991 15.991 0 0 0 16 16h191.21v21.291a48.2 48.2 0 1 0 32 0v-21.287h191.209a16 16 0 0 0 16-16v-261.78h16.791a15.99 15.99 0 0 0 16-16v-64.731a15.989 15.989 0 0 0 -16-16.004z" fill="url(#GradientFill_1)" fill-rule="evenodd" style="fill: rgb(61, 139, 183);"></path></svg>